<?xml version="1.0" encoding="UTF-8"?>
<svg id="Capa_1" data-name="Capa 1" xmlns="http://www.w3.org/2000/svg" viewBox="0 0 160.78 63.26">
  <defs>
    <style>
      .cls-1 {
        fill: #bfbebe;
      }

      .cls-2 {
        fill: none;
        stroke: #bfbebe;
        stroke-linecap: round;
        stroke-linejoin: round;
        stroke-width: 2px;
      }

      .cls-3 {
        fill: #112033;
        stroke: #c8c7c7;
        stroke-miterlimit: 10;
        stroke-width: .5px;
      }
    </style>
  </defs>
  <g>
    <path class="cls-2" d="M49.93,1H7.65c7.84,4.71,15.67,9.42,23.51,14.13"/>
    <path class="cls-2" d="M1,1v9.94c6.43,3.6,12.85,7.21,19.28,10.81"/>
    <path class="cls-2" d="M14.2,28.07c10.15-5.77,20.3-11.54,30.45-17.32-3.85-2.25-7.69-4.5-11.54-6.75"/>
    <path class="cls-2" d="M25.25,34.42c8.23-4.51,16.45-9.02,24.68-13.53V2.96"/>
    <path class="cls-2" d="M49.93,23.6v9.16c-4.53,2.66-9.06,5.31-13.59,7.97"/>
    <path class="cls-2" d="M1,13.41v10.2c14.45,8.19,28.91,16.39,43.36,24.58"/>
    <path class="cls-2" d="M1,26.58v10.31c10.62,6,21.24,12,31.86,18"/>
    <polyline class="cls-2" points="1 39.76 1 47.04 25.09 62.26 49.93 47.69 49.93 36.07"/>
  </g>
  <g>
    <path class="cls-1" d="M115.62,23.69h-.22l-2.19-5.57h.74l1.09,2.78c.16.41.34.93.5,1.4h.02c.15-.46.33-.97.5-1.4l1.08-2.78h.67l-2.18,5.57Z"/>
    <path class="cls-1" d="M121.85,23.6h-1.56v-5.48h1.56c1.59,0,3,.99,3,2.74s-1.41,2.74-3,2.74ZM121.73,18.73h-.73v4.28h.73c1.34,0,2.4-.71,2.4-2.14s-1.06-2.14-2.4-2.14Z"/>
    <path class="cls-1" d="M132.73,23.6l-.22-2.65c-.03-.41-.07-.91-.09-1.34h-.02c-.18.42-.46.97-.65,1.37l-1.32,2.66h-.27l-1.34-2.66c-.2-.39-.44-.91-.64-1.35h-.02c-.02.45-.05.95-.09,1.32l-.22,2.65h-.63l.46-5.48h.45l1.48,2.95c.22.45.51,1,.71,1.47h.02c.19-.46.45-1,.69-1.48l1.47-2.94h.45l.46,5.48h-.67Z"/>
    <path class="cls-1" d="M139.45,23.6l-.94-1.51c-.15-.23-.31-.51-.45-.76h-.02c-.14.25-.32.54-.46.76l-.96,1.51h-.75l1.76-2.78-1.67-2.7h.8l.89,1.43c.13.21.3.49.42.71h.02c.12-.22.28-.5.41-.71l.9-1.43h.76l-1.67,2.65,1.75,2.83h-.8Z"/>
    <path class="cls-1" d="M92.84,31.34l-1.37-1.88h-.64v1.88h-.43v-4.11h1.13c.62,0,1.21.41,1.21,1.11,0,.53-.34.92-.81,1.05l1.44,1.94h-.53ZM91.46,27.61h-.63v1.48h.64c.44,0,.82-.27.82-.74s-.39-.74-.84-.74Z"/>
    <path class="cls-1" d="M95,31.34v-4.11h.43v4.11h-.43Z"/>
    <path class="cls-1" d="M98.66,31.37c-.47,0-.85-.15-1.08-.31l-.06-.47c.3.24.68.41,1.15.41.5,0,.86-.3.86-.74s-.25-.67-.82-.88c-.72-.26-1.06-.61-1.06-1.17,0-.51.38-1.02,1.2-1.02.37,0,.7.12.86.23l-.1.37c-.15-.12-.47-.24-.78-.24-.5,0-.77.32-.77.64,0,.35.23.57.74.76.72.26,1.16.59,1.16,1.27s-.51,1.15-1.31,1.15Z"/>
    <path class="cls-1" d="M104.22,31.34l-1.8-1.97h0v1.97h-.43v-4.11h.43v1.98h0l1.78-1.98h.5l-1.83,2.02,1.92,2.09h-.57Z"/>
    <path class="cls-1" d="M109.49,31.34v-4.11h.43v4.11h-.43Z"/>
    <path class="cls-1" d="M115.61,31.4l-2.01-2.29c-.33-.38-.71-.84-1-1.18h-.01c.01.39.01.77.01,1.14v2.27h-.43v-4.11h.3l1.91,2.18c.28.32.66.76.93,1.1h.01c-.01-.37-.01-.74-.01-1.09v-2.19h.43v4.17h-.13Z"/>
    <path class="cls-1" d="M119.36,27.6v3.73h-.43v-3.73h-1.41v-.37h3.26v.37h-1.42Z"/>
    <path class="cls-1" d="M122.56,31.34v-4.11h2.14v.37h-1.71v1.48h1.4v.37h-1.4v1.51h1.94v.37h-2.37Z"/>
    <path class="cls-1" d="M126.71,31.34v-4.11h.43v3.74h1.91v.37h-2.34Z"/>
    <path class="cls-1" d="M130.83,31.34v-4.11h.43v3.74h1.91v.37h-2.34Z"/>
    <path class="cls-1" d="M135.02,31.34v-4.11h.43v4.11h-.43Z"/>
    <path class="cls-1" d="M139.72,31.41c-1.15,0-2.2-.81-2.2-2.12s1.08-2.12,2.18-2.12c.53,0,.98.12,1.29.32l-.09.39c-.3-.19-.72-.32-1.16-.32-.93,0-1.78.66-1.78,1.75s.84,1.74,1.79,1.74c.46,0,.82-.11,1.06-.27v-1.07h-1.09v-.35h1.5v1.62c-.39.3-.88.44-1.5.44Z"/>
    <path class="cls-1" d="M143.34,31.34v-4.11h2.14v.37h-1.71v1.48h1.4v.37h-1.4v1.51h1.94v.37h-2.37Z"/>
    <path class="cls-1" d="M150.92,31.4l-2.01-2.29c-.33-.38-.71-.84-1-1.18h-.01c.01.39.01.77.01,1.14v2.27h-.43v-4.11h.3l1.91,2.18c.28.32.66.76.93,1.1h.01c-.01-.37-.01-.74-.01-1.09v-2.19h.43v4.17h-.13Z"/>
    <path class="cls-1" d="M156.32,27.85c-.22-.13-.64-.27-1.07-.27-.91,0-1.75.64-1.75,1.71s.82,1.71,1.75,1.71c.47,0,.82-.1,1.09-.26l-.04.41c-.25.14-.59.23-1.09.23-1.09,0-2.15-.79-2.15-2.09s1.06-2.09,2.15-2.09c.52,0,.93.12,1.2.27l-.09.39Z"/>
    <path class="cls-1" d="M158.42,31.34v-4.11h2.14v.37h-1.71v1.48h1.4v.37h-1.4v1.51h1.94v.37h-2.37Z"/>
  </g>
  <line class="cls-3" x1="75.99" y1="4.01" x2="75.99" y2="53.47"/>
</svg>