<?xml version="1.0" encoding="UTF-8"?>
<svg id="Capa_1" data-name="Capa 1" xmlns="http://www.w3.org/2000/svg" viewBox="0 0 164.53 63.26">
  <defs>
    <style>
      .cls-1 {
        fill: #bfbebe;
      }

      .cls-2 {
        fill: none;
        stroke: #bfbebe;
        stroke-linecap: round;
        stroke-linejoin: round;
        stroke-width: 2px;
      }
    </style>
  </defs>
  <g>
    <path class="cls-2" d="M49.93,1H7.65c7.84,4.71,15.67,9.42,23.51,14.13"/>
    <path class="cls-2" d="M1,1v9.94c6.43,3.6,12.85,7.21,19.28,10.81"/>
    <path class="cls-2" d="M14.2,28.07c10.15-5.77,20.3-11.54,30.45-17.32-3.85-2.25-7.69-4.5-11.54-6.75"/>
    <path class="cls-2" d="M25.25,34.42c8.23-4.51,16.45-9.02,24.68-13.53V2.96"/>
    <path class="cls-2" d="M49.93,23.6v9.16c-4.53,2.66-9.06,5.31-13.59,7.97"/>
    <path class="cls-2" d="M1,13.41v10.2c14.45,8.19,28.91,16.39,43.36,24.58"/>
    <path class="cls-2" d="M1,26.58v10.31c10.62,6,21.24,12,31.86,18"/>
    <polyline class="cls-2" points="1 39.76 1 47.04 25.09 62.26 49.93 47.69 49.93 36.07"/>
  </g>
  <g>
    <path class="cls-1" d="M97.36,26.4h-.33l-3.26-8.28h1.1l1.62,4.14c.24.61.51,1.38.74,2.08h.03c.23-.69.49-1.44.74-2.08l1.61-4.14h1l-3.25,8.28Z"/>
    <path class="cls-1" d="M106.63,26.28h-2.33v-8.15h2.33c2.36,0,4.46,1.47,4.46,4.08s-2.1,4.08-4.46,4.08ZM106.45,19.03h-1.08v6.36h1.08c1.99,0,3.57-1.06,3.57-3.18s-1.57-3.18-3.57-3.18Z"/>
    <path class="cls-1" d="M122.81,26.28l-.33-3.95c-.05-.61-.1-1.36-.13-1.99h-.03c-.27.63-.68,1.45-.97,2.03l-1.97,3.96h-.4l-1.99-3.96c-.29-.58-.65-1.35-.95-2.01h-.03c-.02.66-.08,1.42-.13,1.97l-.33,3.95h-.93l.68-8.15h.66l2.2,4.38c.33.66.75,1.49,1.05,2.18h.02c.28-.69.67-1.48,1.02-2.2l2.18-4.37h.67l.69,8.15h-1Z"/>
    <path class="cls-1" d="M132.8,26.28l-1.39-2.25c-.22-.35-.46-.75-.67-1.12h-.03c-.2.37-.47.8-.68,1.12l-1.43,2.25h-1.11l2.62-4.14-2.49-4.01h1.19l1.33,2.13c.19.31.45.73.63,1.06h.02c.18-.33.41-.74.61-1.06l1.34-2.13h1.12l-2.49,3.95,2.61,4.2h-1.19Z"/>
    <path class="cls-1" d="M63.48,37.78l-2.03-2.8h-.96v2.8h-.64v-6.11h1.68c.93,0,1.79.61,1.79,1.66,0,.79-.51,1.37-1.2,1.56l2.15,2.89h-.79ZM61.43,32.23h-.94v2.2h.96c.66,0,1.23-.4,1.23-1.1s-.57-1.1-1.24-1.1Z"/>
    <path class="cls-1" d="M66.7,37.78v-6.11h.64v6.11h-.64Z"/>
    <path class="cls-1" d="M72.14,37.82c-.7,0-1.27-.22-1.6-.46l-.09-.7c.44.35,1.02.6,1.72.6.75,0,1.28-.44,1.28-1.1s-.37-1-1.22-1.3c-1.07-.38-1.58-.9-1.58-1.73,0-.77.56-1.52,1.78-1.52.56,0,1.03.18,1.28.34l-.14.55c-.23-.17-.7-.35-1.16-.35-.75,0-1.15.47-1.15.95,0,.52.34.85,1.1,1.13,1.07.39,1.72.88,1.72,1.9s-.76,1.71-1.95,1.71Z"/>
    <path class="cls-1" d="M80.41,37.78l-2.68-2.93h0v2.93h-.64v-6.11h.64v2.94h0l2.65-2.94h.74l-2.72,3,2.85,3.11h-.84Z"/>
    <path class="cls-1" d="M88.25,37.78v-6.11h.64v6.11h-.64Z"/>
    <path class="cls-1" d="M97.34,37.87l-2.99-3.4c-.5-.56-1.06-1.24-1.48-1.76h-.02c.02.58.02,1.14.02,1.69v3.37h-.64v-6.11h.45l2.84,3.24c.41.47.98,1.13,1.38,1.64h.02c-.02-.55-.02-1.1-.02-1.62v-3.26h.64v6.21h-.19Z"/>
    <path class="cls-1" d="M102.92,32.22v5.55h-.64v-5.55h-2.1v-.56h4.85v.56h-2.11Z"/>
    <path class="cls-1" d="M107.68,37.78v-6.11h3.19v.56h-2.55v2.2h2.09v.56h-2.09v2.24h2.88v.55h-3.52Z"/>
    <path class="cls-1" d="M113.85,37.78v-6.11h.64v5.56h2.84v.55h-3.49Z"/>
    <path class="cls-1" d="M119.98,37.78v-6.11h.64v5.56h2.84v.55h-3.49Z"/>
    <path class="cls-1" d="M126.21,37.78v-6.11h.64v6.11h-.64Z"/>
    <path class="cls-1" d="M133.21,37.88c-1.71,0-3.28-1.21-3.28-3.16s1.6-3.16,3.24-3.16c.79,0,1.46.18,1.92.47l-.13.57c-.44-.28-1.07-.47-1.72-.47-1.39,0-2.65.99-2.65,2.61s1.25,2.59,2.66,2.59c.69,0,1.23-.16,1.58-.4v-1.59h-1.62v-.53h2.23v2.41c-.57.44-1.3.66-2.23.66Z"/>
    <path class="cls-1" d="M138.58,37.78v-6.11h3.19v.56h-2.55v2.2h2.09v.56h-2.09v2.24h2.88v.55h-3.52Z"/>
    <path class="cls-1" d="M149.87,37.87l-2.99-3.4c-.5-.56-1.06-1.24-1.48-1.76h-.02c.02.58.02,1.14.02,1.69v3.37h-.64v-6.11h.45l2.84,3.24c.41.47.98,1.13,1.38,1.64h.02c-.02-.55-.02-1.1-.02-1.62v-3.26h.64v6.21h-.19Z"/>
    <path class="cls-1" d="M157.89,32.58c-.33-.2-.95-.4-1.59-.4-1.36,0-2.61.96-2.61,2.55s1.23,2.55,2.61,2.55c.7,0,1.23-.14,1.63-.38l-.07.6c-.36.21-.87.34-1.62.34-1.63,0-3.2-1.18-3.2-3.11s1.58-3.11,3.2-3.11c.77,0,1.39.18,1.78.4l-.14.57Z"/>
    <path class="cls-1" d="M161.01,37.78v-6.11h3.19v.56h-2.55v2.2h2.09v.56h-2.09v2.24h2.88v.55h-3.52Z"/>
  </g>
</svg>