<?xml version="1.0" encoding="UTF-8"?><svg id="a" xmlns="http://www.w3.org/2000/svg" viewBox="0 0 781.362 960.038"><defs><style>.b{fill:none;stroke:#bfbebe;stroke-linecap:round;stroke-linejoin:round;stroke-width:72px;}</style></defs><path class="b" d="M745.362,36H132.381c92.505,54.274,185.009,108.546,277.514,162.819"/><path class="b" d="M36,101.554v78.572c68.733,38.541,137.465,77.083,206.198,115.624"/><path class="b" d="M325.635,386.566c102.355-65.598,204.711-131.197,307.067-196.794-22.079-16.731-44.157-33.461-66.236-50.193"/><path class="b" d="M470.413,475.002c91.65-50.25,183.3-100.5,274.95-150.75v-175.197"/><path class="b" d="M745.362,446.508v50.043c-40.047,23.473-80.095,46.948-120.142,70.421"/><path class="b" d="M36,312.202v51.493c177.034,105.738,354.069,211.476,531.103,317.214"/><path class="b" d="M36,487.878v68.429c132.077,73.202,264.154,146.403,396.232,219.606"/><path class="b" d="M36,677.516v25.883l349.195,220.639,360.168-211.148v-92.207"/></svg>